<svg width="24" height="24" viewBox="0 0 24 24" fill="none" xmlns="http://www.w3.org/2000/svg">
<path fill-rule="evenodd" clip-rule="evenodd" d="M9.95698 13.6533C10.812 13.205 11.3629 12.3346 11.4022 11.37C11.4622 9.88 9.00225 3 9.00225 3C9.00225 3 6.06225 9.66 6.00225 11.15C5.96295 12.1146 6.44125 13.0269 7.25699 13.5433C8.07272 14.0596 9.10195 14.1015 9.95698 13.6533ZM16.6147 20.2342C17.6558 19.6867 18.3258 18.6254 18.3722 17.45C18.4422 15.64 15.4822 7.26 15.4822 7.26C15.4822 7.26 11.8722 15.38 11.7922 17.19C11.7458 18.3654 12.33 19.4763 13.3247 20.1042C14.3194 20.7321 15.5735 20.7817 16.6147 20.2342Z" fill="#333333"/>
</svg>
